<svg width="99" height="51" viewBox="0 0 99 51" fill="none" xmlns="http://www.w3.org/2000/svg">
<path d="M4.32 3.536H1.824C1.424 3.536 1.176 3.448 1.08 3.272C1 3.096 0.96 2.824 0.96 2.456V1.4C0.96 0.999998 1.048 0.759998 1.224 0.679998C1.4 0.599998 1.672 0.559999 2.04 0.559999H9.264C9.712 0.559999 10.008 0.607999 10.152 0.704C10.312 0.783999 10.392 1.056 10.392 1.52V33.944C10.392 34.376 10.408 34.664 10.44 34.808C10.488 34.952 10.744 35.024 11.208 35.024H14.064C14.288 35.024 14.448 35.064 14.544 35.144C14.656 35.224 14.712 35.4 14.712 35.672V36.992C14.712 37.456 14.632 37.744 14.472 37.856C14.312 37.952 14.008 38 13.56 38H1.896C1.544 38 1.296 37.952 1.152 37.856C1.024 37.76 0.96 37.52 0.96 37.136V35.864C0.96 35.56 0.992 35.344 1.056 35.216C1.136 35.088 1.328 35.024 1.632 35.024H4.44C4.856 35.024 5.096 34.984 5.16 34.904C5.24 34.808 5.28 34.544 5.28 34.112V4.424C5.28 4.024 5.216 3.776 5.088 3.68C4.96 3.584 4.704 3.536 4.32 3.536ZM22.9658 25.04C22.9658 26.976 23.1258 28.776 23.4458 30.44C23.7658 32.104 24.3578 33.448 25.2218 34.472C26.1018 35.496 27.3578 36.008 28.9898 36.008C30.2218 36.008 31.2298 35.72 32.0138 35.144C32.7978 34.568 33.4058 33.8 33.8378 32.84C34.2858 31.864 34.5898 30.784 34.7498 29.6C34.9258 28.416 35.0138 27.216 35.0138 26C35.0138 24.064 34.8538 22.264 34.5338 20.6C34.2138 18.936 33.6138 17.592 32.7338 16.568C31.8698 15.544 30.6218 15.032 28.9898 15.032C27.7738 15.032 26.7658 15.32 25.9658 15.896C25.1818 16.472 24.5738 17.248 24.1418 18.224C23.7098 19.184 23.4058 20.256 23.2298 21.44C23.0538 22.624 22.9658 23.824 22.9658 25.04ZM17.1098 26.024C17.1098 23.464 17.5498 21.168 18.4298 19.136C19.3098 17.088 20.6298 15.472 22.3898 14.288C24.1498 13.088 26.3498 12.488 28.9898 12.488C31.6298 12.488 33.8298 13.072 35.5898 14.24C37.3498 15.392 38.6698 16.92 39.5498 18.824C40.4298 20.728 40.8698 22.8 40.8698 25.04C40.8698 27.6 40.4298 29.896 39.5498 31.928C38.6698 33.96 37.3498 35.576 35.5898 36.776C33.8298 37.96 31.6298 38.552 28.9898 38.552C26.3498 38.552 24.1498 37.976 22.3898 36.824C20.6298 35.672 19.3098 34.144 18.4298 32.24C17.5498 30.336 17.1098 28.264 17.1098 26.024ZM50.4986 21.368C50.4986 22.504 50.6346 23.584 50.9066 24.608C51.1946 25.616 51.6746 26.432 52.3466 27.056C53.0186 27.68 53.9386 27.992 55.1066 27.992C56.2586 27.992 57.1706 27.68 57.8426 27.056C58.5146 26.432 58.9866 25.616 59.2586 24.608C59.5466 23.584 59.6906 22.504 59.6906 21.368C59.6906 20.232 59.5466 19.16 59.2586 18.152C58.9866 17.144 58.5146 16.328 57.8426 15.704C57.1706 15.064 56.2586 14.744 55.1066 14.744C53.9386 14.744 53.0186 15.064 52.3466 15.704C51.6746 16.328 51.1946 17.144 50.9066 18.152C50.6346 19.16 50.4986 20.232 50.4986 21.368ZM45.2186 21.368C45.2186 19.592 45.6266 18.04 46.4426 16.712C47.2746 15.368 48.4346 14.328 49.9226 13.592C51.4106 12.856 53.1386 12.488 55.1066 12.488C56.5466 12.488 57.8506 12.696 59.0186 13.112C60.2026 13.512 61.2266 14.08 62.0906 14.816C62.2666 14.96 62.3786 15.032 62.4266 15.032C62.4746 15.016 62.5706 14.928 62.7146 14.768C63.4506 13.968 64.2426 13.392 65.0906 13.04C65.9386 12.672 66.6906 12.488 67.3466 12.488C68.4666 12.488 69.4026 12.68 70.1546 13.064C70.9066 13.448 71.4746 13.968 71.8586 14.624C72.2426 15.28 72.4346 16.04 72.4346 16.904C72.4346 17.832 72.1546 18.552 71.5946 19.064C71.0506 19.576 70.3866 19.832 69.6026 19.832C68.8346 19.832 68.2186 19.616 67.7546 19.184C67.2906 18.736 67.0586 18.208 67.0586 17.6C67.0586 17.056 67.1386 16.656 67.2986 16.4C67.4586 16.144 67.6186 15.936 67.7786 15.776C67.9386 15.6 68.0186 15.392 68.0186 15.152C68.0186 14.704 67.7466 14.48 67.2026 14.48C66.6746 14.48 66.1306 14.624 65.5706 14.912C65.0106 15.184 64.4826 15.664 63.9866 16.352C63.8906 16.496 63.8266 16.608 63.7946 16.688C63.7626 16.768 63.7946 16.896 63.8906 17.072C64.5786 18.368 64.9226 19.8 64.9226 21.368C64.9226 23.16 64.5066 24.72 63.6746 26.048C62.8586 27.376 61.7146 28.408 60.2426 29.144C58.7706 29.88 57.0586 30.248 55.1066 30.248C54.7546 30.248 54.4106 30.24 54.0746 30.224C53.7546 30.192 53.4266 30.144 53.0906 30.08C52.8026 30.048 52.5706 30.04 52.3946 30.056C52.2346 30.072 52.0426 30.136 51.8186 30.248C51.1626 30.568 50.5866 30.944 50.0906 31.376C49.6106 31.792 49.3706 32.216 49.3706 32.648C49.3706 33.448 49.7706 33.936 50.5706 34.112C51.3866 34.272 52.4186 34.352 53.6666 34.352C53.9706 34.352 54.3706 34.352 54.8666 34.352C55.3626 34.336 55.8986 34.328 56.4746 34.328C57.0506 34.328 57.5946 34.328 58.1066 34.328C58.6346 34.312 59.0666 34.304 59.4026 34.304C60.5706 34.304 61.6906 34.4 62.7626 34.592C63.8346 34.784 64.7866 35.144 65.6186 35.672C66.4666 36.184 67.1386 36.936 67.6346 37.928C68.1306 38.92 68.3786 40.208 68.3786 41.792C68.3786 43.648 67.8426 45.216 66.7706 46.496C65.7146 47.792 64.2186 48.784 62.2826 49.472C60.3626 50.16 58.0986 50.504 55.4906 50.504C51.9386 50.504 49.0986 50.008 46.9706 49.016C44.8586 48.024 43.8026 46.512 43.8026 44.48C43.8026 43.04 44.2266 41.8 45.0746 40.76C45.9226 39.72 46.8666 38.928 47.9066 38.384C48.2266 38.224 48.3626 38.12 48.3146 38.072C48.2826 38.04 48.1146 37.952 47.8106 37.808C47.0906 37.472 46.5226 37 46.1066 36.392C45.6906 35.784 45.4826 34.976 45.4826 33.968C45.4826 33.008 45.8106 32.144 46.4666 31.376C47.1226 30.608 48.0186 29.968 49.1546 29.456C49.5706 29.28 49.7546 29.168 49.7066 29.12C49.6586 29.056 49.4666 28.928 49.1306 28.736C47.8826 27.984 46.9146 26.976 46.2266 25.712C45.5546 24.432 45.2186 22.984 45.2186 21.368ZM64.2746 43.088C64.2746 41.872 63.8906 40.848 63.1226 40.016C62.3546 39.184 61.1866 38.768 59.6186 38.768C59.2826 38.768 58.7546 38.768 58.0346 38.768C57.3146 38.768 56.5946 38.768 55.8746 38.768C55.1546 38.768 54.6186 38.768 54.2666 38.768C53.7226 38.768 53.1786 38.76 52.6346 38.744C52.1066 38.744 51.5786 38.72 51.0506 38.672C50.8586 38.64 50.7146 38.632 50.6186 38.648C50.5386 38.68 50.4426 38.76 50.3306 38.888C49.6906 39.56 49.2986 40.264 49.1546 41C49.0266 41.752 48.9626 42.384 48.9626 42.896C48.9626 44.464 49.5626 45.688 50.7626 46.568C51.9786 47.448 53.8106 47.888 56.2586 47.888C57.6026 47.888 58.8826 47.712 60.0986 47.36C61.3306 47.024 62.3306 46.496 63.0986 45.776C63.8826 45.072 64.2746 44.176 64.2746 43.088ZM80.1533 25.04C80.1533 26.976 80.3133 28.776 80.6333 30.44C80.9533 32.104 81.5453 33.448 82.4093 34.472C83.2893 35.496 84.5453 36.008 86.1773 36.008C87.4093 36.008 88.4173 35.72 89.2013 35.144C89.9853 34.568 90.5933 33.8 91.0253 32.84C91.4733 31.864 91.7773 30.784 91.9373 29.6C92.1133 28.416 92.2013 27.216 92.2013 26C92.2013 24.064 92.0413 22.264 91.7213 20.6C91.4013 18.936 90.8013 17.592 89.9213 16.568C89.0573 15.544 87.8093 15.032 86.1773 15.032C84.9613 15.032 83.9533 15.32 83.1533 15.896C82.3693 16.472 81.7613 17.248 81.3293 18.224C80.8973 19.184 80.5933 20.256 80.4173 21.44C80.2413 22.624 80.1533 23.824 80.1533 25.04ZM74.2973 26.024C74.2973 23.464 74.7373 21.168 75.6173 19.136C76.4973 17.088 77.8173 15.472 79.5773 14.288C81.3373 13.088 83.5373 12.488 86.1773 12.488C88.8173 12.488 91.0173 13.072 92.7773 14.24C94.5373 15.392 95.8573 16.92 96.7373 18.824C97.6173 20.728 98.0573 22.8 98.0573 25.04C98.0573 27.6 97.6173 29.896 96.7373 31.928C95.8573 33.96 94.5373 35.576 92.7773 36.776C91.0173 37.96 88.8173 38.552 86.1773 38.552C83.5373 38.552 81.3373 37.976 79.5773 36.824C77.8173 35.672 76.4973 34.144 75.6173 32.24C74.7373 30.336 74.2973 28.264 74.2973 26.024Z" fill="black"/>
</svg>
